<svg width="192" height="48" viewBox="0 0 192 48" fill="none" xmlns="http://www.w3.org/2000/svg">
<g filter="url(#filter0_b_123_1108)">
<g clip-path="url(#clip0_123_1108)">
<rect x="144" width="48" height="48" rx="24" fill="white" fill-opacity="0.05"/>
<circle cx="168" cy="24" r="24" fill="#DA9909"/>
<g clip-path="url(#clip1_123_1108)">
<path d="M168 8C161.383 8 156 13.383 156 20C156 26.617 161.383 32 168 32C174.617 32 180 26.617 180 20C180 13.383 174.617 8 168 8ZM168 30C162.486 30 158 25.514 158 20C158 14.486 162.486 10 168 10C173.514 10 178 14.486 178 20C178 25.514 173.514 30 168 30ZM167 14V26C167 26.552 166.553 27 166 27C165.447 27 165 26.552 165 26V14C165 13.448 165.447 13 166 13C166.553 13 167 13.448 167 14ZM163 17V23C163 23.552 162.553 24 162 24C161.447 24 161 23.552 161 23V17C161 16.448 161.447 16 162 16C162.553 16 163 16.448 163 17ZM171 16V24C171 24.552 170.553 25 170 25C169.447 25 169 24.552 169 24V16C169 15.448 169.447 15 170 15C170.553 15 171 15.448 171 16ZM175 19V22C175 22.552 174.553 23 174 23C173.447 23 173 22.552 173 22V19C173 18.448 173.447 18 174 18C174.553 18 175 18.448 175 19Z" fill="white"/>
</g>
<path opacity="0.6" fill-rule="evenodd" clip-rule="evenodd" d="M164.373 36C163.92 36.2531 163.514 36.4974 163.142 36.7211L163.141 36.7212L163.141 36.7213C161.827 37.5116 160.939 38.0453 159.901 37.8037C158.319 37.4357 157.234 37.8628 157.234 37.8628C158.937 37.9787 161.036 38.7374 161.036 38.7374C159.746 40.4844 158.422 40.1732 156.136 39.4167C153.847 38.6602 152.783 39.6688 152.783 39.6688C153.487 39.3394 155.294 39.3008 156.6 40.155C157.907 41.0091 159.73 40.7956 159.73 40.7956C157.872 42.4267 154.709 41.961 154.709 41.961C159.662 43.6307 162.224 39.1645 162.224 39.1645C161.69 41.0091 162 42.3677 162 42.3677C162.708 38.3376 164.453 37.663 167.478 36.4939L167.478 36.4938L167.674 36.418C167.978 36.3 168.244 36.1587 168.475 36H189C184.266 43.3837 176.623 48.1769 168 48.1769C159.377 48.1769 151.734 43.3837 147 36H164.373ZM166.194 38.0319L166.195 38.0339C166.123 38.0715 165.424 38.4539 165.025 39.1735C164.866 39.4596 164.843 39.7592 164.819 40.0759L164.819 40.076C164.779 40.5991 164.736 41.1684 164.071 41.7996C163.004 42.8128 163.145 43.4602 163.145 43.4602C163.2 42.9241 163.691 42.5606 164.125 42.3221C164.56 42.0836 164.953 41.3407 164.953 41.3407L165.611 42.5742C165.639 44.1576 164.252 44.5052 164.252 44.5052C165.933 44.5347 165.975 42.5901 165.975 42.5901C165.975 42.5901 166.663 42.94 167.559 43.1444C168.454 43.3489 168.553 43.8714 168.553 43.8714C168.553 43.8714 168.793 43.1444 167.432 42.7332C166.072 42.3221 165.721 41.5951 165.721 41.5951C165.721 41.5951 165.874 41.5792 167.5 41.5792C169.127 41.5792 169.785 42.1017 169.785 42.1017C169.197 41.1879 167.764 41.2094 166.842 41.2232H166.842H166.842L166.842 41.2232C166.535 41.2278 166.286 41.2316 166.142 41.1998C165.566 41.0726 165.204 40.2207 165.721 39.5074C166.22 38.8204 166.197 38.087 166.195 38.0339L166.198 38.032L166.2 38.0308H166.194L166.194 38.0319ZM169.93 36.0205L169.93 36.0203L169.928 36.0181L169.93 36.0205ZM169.93 36.0205C169.919 36.0326 169.188 36.8879 168.525 37.1835C168.525 37.1835 169.034 37.2743 169.245 38.5351L169.265 38.6518C169.472 39.8943 169.729 41.4386 171.326 42.02C171.326 42.02 169.636 40.775 169.93 38.2352C169.93 38.2352 171.844 38.7873 172.459 40.9477C173.073 43.1081 175.015 44.3848 175.015 44.3848C175.015 44.3848 173.24 42.7764 173.24 40.0004C173.24 40.0004 176.412 41.845 180.576 40.741C180.576 40.741 177.306 40.8977 176.217 40.0776C176.217 40.0776 177.028 39.6983 177.447 39.4143C177.865 39.1303 179.095 38.6578 180.8 38.6896C182.238 38.6305 182.748 37.8627 182.748 37.8627C182.748 37.8627 181.301 38.4693 179.121 38.3125C178.061 38.2363 177.437 38.585 176.832 38.9234L176.832 38.9234C176.192 39.2809 175.573 39.6269 174.482 39.4483C172.393 39.1064 170.006 36.1173 169.93 36.0205Z" fill="white"/>
</g>
<rect x="144.5" y="0.5" width="47" height="47" rx="23.5" stroke="white" stroke-opacity="0.6"/>
</g>
<g filter="url(#filter1_b_123_1108)">
<g clip-path="url(#clip2_123_1108)">
<rect x="108" width="48" height="48" rx="24" fill="white" fill-opacity="0.05"/>
<circle cx="132" cy="24" r="24" fill="#DA9909"/>
<path d="M141 20.424V19C141 16.6131 140.052 14.3239 138.364 12.636C136.676 10.9482 134.387 10 132 10C129.613 10 127.324 10.9482 125.636 12.636C123.948 14.3239 123 16.6131 123 19V20.424C121.951 20.8858 121.093 21.694 120.569 22.7131C120.045 23.7322 119.886 24.9004 120.121 26.0222C120.355 27.1441 120.968 28.1513 121.856 28.8755C122.744 29.5996 123.854 29.9966 125 30C125.531 30 126.039 29.7893 126.414 29.4142C126.789 29.0391 127 28.5304 127 28V22C127 21.4696 126.789 20.9609 126.414 20.5858C126.039 20.2107 125.531 20 125 20V19C125 17.1435 125.738 15.363 127.05 14.0503C128.363 12.7375 130.144 12 132 12C133.857 12 135.637 12.7375 136.95 14.0503C138.263 15.363 139 17.1435 139 19V20C138.47 20 137.961 20.2107 137.586 20.5858C137.211 20.9609 137 21.4696 137 22V28C137 28.5304 137.211 29.0391 137.586 29.4142C137.961 29.7893 138.47 30 139 30C140.146 29.9966 141.256 29.5996 142.145 28.8755C143.033 28.1513 143.645 27.1441 143.88 26.0222C144.114 24.9004 143.956 23.7322 143.432 22.7131C142.907 21.694 142.049 20.8858 141 20.424ZM125 28C124.205 28 123.441 27.6839 122.879 27.1213C122.316 26.5587 122 25.7956 122 25C122 24.2044 122.316 23.4413 122.879 22.8787C123.441 22.3161 124.205 22 125 22V28ZM139 28V22C139.796 22 140.559 22.3161 141.122 22.8787C141.684 23.4413 142 24.2044 142 25C142 25.7956 141.684 26.5587 141.122 27.1213C140.559 27.6839 139.796 28 139 28Z" fill="white"/>
<path opacity="0.6" fill-rule="evenodd" clip-rule="evenodd" d="M128.373 36C127.92 36.2531 127.514 36.4974 127.142 36.7211L127.141 36.7212L127.141 36.7213C125.827 37.5116 124.939 38.0453 123.901 37.8037C122.319 37.4357 121.234 37.8628 121.234 37.8628C122.937 37.9787 125.036 38.7374 125.036 38.7374C123.746 40.4844 122.422 40.1732 120.136 39.4167C117.847 38.6602 116.783 39.6688 116.783 39.6688C117.487 39.3394 119.294 39.3008 120.6 40.155C121.907 41.0091 123.73 40.7956 123.73 40.7956C121.872 42.4267 118.709 41.961 118.709 41.961C123.662 43.6307 126.224 39.1645 126.224 39.1645C125.69 41.0091 126 42.3677 126 42.3677C126.708 38.3376 128.453 37.663 131.478 36.4939L131.478 36.4938L131.674 36.418C131.978 36.3 132.244 36.1587 132.475 36H153C148.266 43.3837 140.623 48.1769 132 48.1769C123.377 48.1769 115.734 43.3837 111 36H128.373ZM130.194 38.0319L130.195 38.0339C130.123 38.0715 129.424 38.4539 129.025 39.1735C128.866 39.4596 128.843 39.7592 128.819 40.0759L128.819 40.076C128.779 40.5991 128.736 41.1684 128.071 41.7996C127.004 42.8128 127.145 43.4602 127.145 43.4602C127.2 42.9241 127.691 42.5606 128.125 42.3221C128.56 42.0836 128.953 41.3407 128.953 41.3407L129.611 42.5742C129.639 44.1576 128.252 44.5052 128.252 44.5052C129.933 44.5347 129.975 42.5901 129.975 42.5901C129.975 42.5901 130.663 42.94 131.559 43.1444C132.454 43.3489 132.553 43.8714 132.553 43.8714C132.553 43.8714 132.793 43.1444 131.432 42.7332C130.072 42.3221 129.721 41.5951 129.721 41.5951C129.721 41.5951 129.874 41.5792 131.5 41.5792C133.127 41.5792 133.785 42.1017 133.785 42.1017C133.197 41.1879 131.764 41.2094 130.842 41.2232H130.842H130.842L130.842 41.2232C130.535 41.2278 130.286 41.2316 130.142 41.1998C129.566 41.0726 129.204 40.2207 129.721 39.5074C130.22 38.8204 130.197 38.087 130.195 38.0339L130.198 38.032L130.2 38.0308H130.194L130.194 38.0319ZM133.93 36.0205L133.93 36.0203L133.928 36.0181L133.93 36.0205ZM133.93 36.0205C133.919 36.0326 133.188 36.8879 132.525 37.1835C132.525 37.1835 133.034 37.2743 133.245 38.5351L133.265 38.6518C133.472 39.8943 133.729 41.4386 135.326 42.02C135.326 42.02 133.636 40.775 133.93 38.2352C133.93 38.2352 135.844 38.7873 136.459 40.9477C137.073 43.1081 139.015 44.3848 139.015 44.3848C139.015 44.3848 137.24 42.7764 137.24 40.0004C137.24 40.0004 140.412 41.845 144.576 40.741C144.576 40.741 141.306 40.8977 140.217 40.0776C140.217 40.0776 141.028 39.6983 141.447 39.4143C141.865 39.1303 143.095 38.6578 144.8 38.6896C146.238 38.6305 146.748 37.8627 146.748 37.8627C146.748 37.8627 145.301 38.4693 143.121 38.3125C142.061 38.2363 141.437 38.585 140.832 38.9234L140.832 38.9234C140.192 39.2809 139.573 39.6269 138.482 39.4483C136.393 39.1064 134.006 36.1173 133.93 36.0205Z" fill="white"/>
</g>
<rect x="108.5" y="0.5" width="47" height="47" rx="23.5" stroke="white" stroke-opacity="0.6"/>
</g>
<g filter="url(#filter2_b_123_1108)">
<g clip-path="url(#clip3_123_1108)">
<rect x="72" width="48" height="48" rx="24" fill="white" fill-opacity="0.05"/>
<circle cx="96" cy="24" r="24" fill="#DA9909"/>
<g clip-path="url(#clip4_123_1108)">
<path d="M107.786 27.492L100.713 9.83602C100.089 8.30702 98.337 7.56702 96.802 8.19102L95.877 8.56902C95.628 8.67102 95.405 8.81302 95.197 8.97102C94.649 8.37702 93.871 7.99902 93.001 7.99902H87C85.346 8.00002 84 9.34602 84 11V29C84 30.654 85.346 32 87 32H93C94.654 32 96 30.654 96 29V16.895L101.304 30.137C101.929 31.68 103.721 32.397 105.213 31.778L106.139 31.4C107.644 30.826 108.425 28.965 107.786 27.492ZM97.574 15.446L100.352 14.314L104.523 24.726L101.745 25.858L97.574 15.446ZM96.632 10.421L97.557 10.043C98.053 9.83702 98.654 10.074 98.859 10.586L99.609 12.457L96.832 13.589L96.085 11.723C95.877 11.213 96.123 10.628 96.634 10.42L96.632 10.421ZM86 15H89V25H86V15ZM91 15H94V25H91V15ZM94 11V13H91V10H93C93.551 10 94 10.448 94 11ZM87 10H89V13H86V11C86 10.448 86.449 10 87 10ZM86 29V27H89V30H87C86.449 30 86 29.552 86 29ZM93 30H91V27H94V29C94 29.552 93.551 30 93 30ZM105.929 29.009C105.825 29.256 105.632 29.447 105.385 29.548L104.459 29.926C103.948 30.132 103.364 29.889 103.159 29.386L102.49 27.715L105.268 26.583L105.933 28.244C106.035 28.491 106.034 28.764 105.93 29.01L105.929 29.009Z" fill="white"/>
</g>
<path opacity="0.6" fill-rule="evenodd" clip-rule="evenodd" d="M92.3734 36C91.9199 36.2531 91.5136 36.4974 91.1416 36.7211L91.1414 36.7212L91.1413 36.7213C89.8269 37.5116 88.9394 38.0453 87.9011 37.8037C86.3192 37.4357 85.2344 37.8628 85.2344 37.8628C86.9371 37.9787 89.0362 38.7374 89.0362 38.7374C87.7461 40.4844 86.4218 40.1732 84.1356 39.4167C81.8473 38.6602 80.7826 39.6688 80.7826 39.6688C81.487 39.3394 83.2943 39.3008 84.6005 40.155C85.9066 41.0091 87.73 40.7956 87.73 40.7956C85.8724 42.4267 82.7087 41.961 82.7087 41.961C87.6616 43.6307 90.2236 39.1645 90.2236 39.1645C89.6903 41.0091 90.0002 42.3677 90.0002 42.3677C90.7075 38.3376 92.4527 37.663 95.4775 36.4939L95.4775 36.4938L95.6736 36.418C95.9781 36.3 96.2437 36.1587 96.4753 36H117C112.266 43.3837 104.623 48.1769 96 48.1769C87.3769 48.1769 79.7338 43.3837 75 36H92.3734ZM94.1944 38.0319L94.1945 38.0339C94.1233 38.0715 93.424 38.4539 93.025 39.1735C92.8664 39.4596 92.8435 39.7592 92.8192 40.0759L92.8192 40.076C92.7791 40.5991 92.7355 41.1684 92.0711 41.7996C91.0044 42.8128 91.1453 43.4602 91.1453 43.4602C91.1997 42.9241 91.6907 42.5606 92.1254 42.3221C92.5601 42.0836 92.9526 41.3407 92.9526 41.3407L93.6107 42.5742C93.6389 44.1576 92.2522 44.5052 92.2522 44.5052C93.9327 44.5347 93.975 42.5901 93.975 42.5901C93.975 42.5901 94.6633 42.94 95.5589 43.1444C96.4545 43.3489 96.5531 43.8714 96.5531 43.8714C96.5531 43.8714 96.7926 43.1444 95.4321 42.7332C94.0716 42.3221 93.7214 41.5951 93.7214 41.5951C93.7214 41.5951 93.8743 41.5792 95.5005 41.5792C97.1266 41.5792 97.7848 42.1017 97.7848 42.1017C97.1972 41.1879 95.764 41.2094 94.8421 41.2232H94.8421H94.842L94.8417 41.2232C94.5354 41.2278 94.2856 41.2316 94.142 41.1998C93.5664 41.0726 93.2041 40.2207 93.7214 39.5074C94.2195 38.8204 94.1968 38.087 94.1945 38.0339L94.1981 38.032L94.2004 38.0308H94.1943L94.1944 38.0319ZM97.9296 36.0205L97.9297 36.0203L97.9277 36.0181L97.9296 36.0205ZM97.9296 36.0205C97.9193 36.0326 97.1884 36.8879 96.5249 37.1835C96.5249 37.1835 97.0341 37.2743 97.2454 38.5351L97.2649 38.6518C97.4716 39.8943 97.7286 41.4386 99.3264 42.02C99.3264 42.02 97.6359 40.775 97.9297 38.2352C97.9297 38.2352 99.8436 38.7873 100.459 40.9477C101.073 43.1081 103.015 44.3848 103.015 44.3848C103.015 44.3848 101.24 42.7764 101.24 40.0004C101.24 40.0004 104.412 41.845 108.576 40.741C108.576 40.741 105.306 40.8977 104.217 40.0776C104.217 40.0776 105.028 39.6983 105.447 39.4143C105.865 39.1303 107.095 38.6578 108.8 38.6896C110.238 38.6305 110.748 37.8627 110.748 37.8627C110.748 37.8627 109.301 38.4693 107.121 38.3125C106.061 38.2363 105.437 38.585 104.832 38.9234L104.832 38.9234C104.192 39.2809 103.573 39.6269 102.482 39.4483C100.393 39.1064 98.0064 36.1173 97.9296 36.0205Z" fill="white"/>
</g>
<rect x="72.5" y="0.5" width="47" height="47" rx="23.5" stroke="white" stroke-opacity="0.6"/>
</g>
<g filter="url(#filter3_b_123_1108)">
<g clip-path="url(#clip5_123_1108)">
<rect x="36" width="48" height="48" rx="24" fill="white" fill-opacity="0.05"/>
<circle cx="60" cy="25" r="24" fill="#DA9909"/>
<g clip-path="url(#clip6_123_1108)">
<path d="M56.001 15.746C56.043 15.751 55.959 15.746 56.001 15.746ZM52.024 13.994C51.901 14.532 52.238 15.068 52.776 15.191C53.788 15.422 54.957 15.614 56 15.746C56.497 15.746 56.927 15.377 56.991 14.871C57.06 14.323 56.672 13.823 56.124 13.754C55.145 13.631 54.169 13.459 53.222 13.242C52.685 13.116 52.147 13.456 52.024 13.994ZM56.001 23.77C56.043 23.775 55.959 23.77 56.001 23.77ZM56.124 21.778C55.149 21.656 54.173 21.484 53.223 21.267C52.686 21.143 52.148 21.48 52.025 22.019C51.902 22.557 52.239 23.093 52.777 23.216C53.792 23.448 54.96 23.64 56.001 23.77C56.498 23.77 56.929 23.4 56.992 22.894C57.06 22.346 56.672 21.846 56.124 21.778ZM56.001 19.746C56.043 19.751 55.959 19.746 56.001 19.746ZM56.125 17.754C55.146 17.631 54.17 17.459 53.223 17.242C52.686 17.115 52.148 17.456 52.025 17.994C51.902 18.532 52.239 19.068 52.777 19.191C53.789 19.422 54.958 19.614 56.001 19.746C56.498 19.746 56.928 19.377 56.992 18.871C57.061 18.323 56.673 17.823 56.125 17.754ZM63.999 23.771C64.04 23.771 63.957 23.776 63.999 23.771ZM68.235 28.446C67.229 28.713 66.198 28.929 65.148 29.095C66.893 29.529 68.955 29.91 71.044 30.002C71.596 30.026 72.023 30.493 71.999 31.045C71.976 31.582 71.533 32.001 71.001 32.001C70.986 32.001 70.971 32.001 70.956 32.001C66.007 31.784 61.355 30.108 60 29.58C58.645 30.108 53.994 31.784 49.044 32.001C49.029 32.001 49.014 32.001 48.999 32.001C48.467 32.001 48.024 31.582 48.001 31.045C47.977 30.493 48.404 30.026 48.956 30.002C51.045 29.91 53.107 29.529 54.852 29.095C53.801 28.929 52.77 28.713 51.764 28.446C49.548 27.858 48 25.863 48 23.594V12.5C48 11.098 48.635 9.79799 49.743 8.93599C50.837 8.08399 52.232 7.78999 53.566 8.12799C56.142 8.78099 58.127 9.07399 60.003 9.07999C61.872 9.07399 63.857 8.78099 66.434 8.12799C67.767 7.79099 69.164 8.08399 70.257 8.93599C71.364 9.79799 72 11.098 72 12.5V23.594C72 25.863 70.452 27.858 68.235 28.446ZM59 11.053C57.245 10.963 55.373 10.65 53.076 10.068C52.877 10.017 52.676 9.99299 52.477 9.99299C51.939 9.99299 51.412 10.173 50.972 10.514C50.354 10.995 50 11.719 50 12.5V23.594C50 24.956 50.936 26.156 52.276 26.512C54.414 27.079 56.671 27.404 59 27.482V11.053ZM67.723 26.512C69.064 26.157 70 24.956 70 23.594V12.5C70 11.719 69.646 10.995 69.028 10.514C68.424 10.045 67.661 9.87899 66.924 10.068C64.625 10.651 62.752 10.964 61 11.054V27.483C63.326 27.406 65.585 27.08 67.723 26.513V26.512ZM63.999 15.746C64.04 15.746 63.956 15.751 63.999 15.746ZM66.777 13.242C65.829 13.459 64.852 13.631 63.875 13.754C63.327 13.823 62.938 14.323 63.008 14.871C63.071 15.377 63.502 15.746 63.999 15.746C65.042 15.615 66.21 15.423 67.223 15.191C67.761 15.068 68.098 14.532 67.975 13.994C67.852 13.455 67.313 13.115 66.777 13.242ZM63.999 19.746C64.04 19.746 63.956 19.751 63.999 19.746ZM66.777 17.242C65.829 17.459 64.852 17.631 63.875 17.754C63.327 17.823 62.938 18.323 63.008 18.871C63.071 19.377 63.502 19.746 63.999 19.746C65.042 19.615 66.21 19.423 67.223 19.191C67.761 19.068 68.098 18.532 67.975 17.994C67.852 17.454 67.313 17.116 66.777 17.242ZM66.777 21.267C65.826 21.484 64.85 21.656 63.876 21.778C63.328 21.846 62.939 22.346 63.008 22.894C63.071 23.4 63.502 23.771 63.999 23.771C65.039 23.641 66.207 23.449 67.223 23.216C67.761 23.093 68.098 22.557 67.975 22.019C67.852 21.479 67.313 21.142 66.777 21.267Z" fill="white"/>
</g>
<path opacity="0.6" fill-rule="evenodd" clip-rule="evenodd" d="M56.3734 36C55.9199 36.2531 55.5136 36.4974 55.1416 36.7211L55.1414 36.7212L55.1413 36.7213C53.8269 37.5116 52.9394 38.0453 51.9011 37.8037C50.3192 37.4357 49.2344 37.8628 49.2344 37.8628C50.9371 37.9787 53.0362 38.7374 53.0362 38.7374C51.7461 40.4844 50.4218 40.1732 48.1356 39.4167C45.8473 38.6602 44.7826 39.6688 44.7826 39.6688C45.487 39.3394 47.2943 39.3008 48.6005 40.155C49.9066 41.0091 51.73 40.7956 51.73 40.7956C49.8724 42.4267 46.7087 41.961 46.7087 41.961C51.6616 43.6307 54.2236 39.1645 54.2236 39.1645C53.6903 41.0091 54.0002 42.3677 54.0002 42.3677C54.7075 38.3376 56.4527 37.663 59.4775 36.4939L59.4775 36.4938L59.6736 36.418C59.9781 36.3 60.2437 36.1587 60.4753 36H81C76.2663 43.3837 68.6231 48.1769 60 48.1769C51.3769 48.1769 43.7338 43.3837 39 36H56.3734ZM58.1944 38.0319L58.1945 38.0339C58.1233 38.0715 57.424 38.4539 57.025 39.1735C56.8664 39.4596 56.8435 39.7592 56.8192 40.0759L56.8192 40.076C56.7791 40.5991 56.7355 41.1684 56.0711 41.7996C55.0044 42.8128 55.1453 43.4602 55.1453 43.4602C55.1997 42.9241 55.6907 42.5606 56.1254 42.3221C56.5601 42.0836 56.9526 41.3407 56.9526 41.3407L57.6107 42.5742C57.6389 44.1576 56.2522 44.5052 56.2522 44.5052C57.9327 44.5347 57.975 42.5901 57.975 42.5901C57.975 42.5901 58.6633 42.94 59.5589 43.1444C60.4545 43.3489 60.5531 43.8714 60.5531 43.8714C60.5531 43.8714 60.7926 43.1444 59.4321 42.7332C58.0716 42.3221 57.7214 41.5951 57.7214 41.5951C57.7214 41.5951 57.8743 41.5792 59.5005 41.5792C61.1266 41.5792 61.7848 42.1017 61.7848 42.1017C61.1972 41.1879 59.764 41.2094 58.8421 41.2232H58.8421H58.842L58.8417 41.2232C58.5354 41.2278 58.2856 41.2316 58.142 41.1998C57.5664 41.0726 57.2041 40.2207 57.7214 39.5074C58.2195 38.8204 58.1968 38.087 58.1945 38.0339L58.1981 38.032L58.2004 38.0308H58.1943L58.1944 38.0319ZM61.9296 36.0205L61.9297 36.0203L61.9277 36.0181L61.9296 36.0205ZM61.9296 36.0205C61.9193 36.0326 61.1884 36.8879 60.5249 37.1835C60.5249 37.1835 61.0341 37.2743 61.2454 38.5351L61.2649 38.6518C61.4716 39.8943 61.7286 41.4386 63.3264 42.02C63.3264 42.02 61.6359 40.775 61.9297 38.2352C61.9297 38.2352 63.8436 38.7873 64.4595 40.9477C65.0733 43.1081 67.0154 44.3848 67.0154 44.3848C67.0154 44.3848 65.2404 42.7764 65.2404 40.0004C65.2404 40.0004 68.4122 41.845 72.5761 40.741C72.5761 40.741 69.3057 40.8977 68.2169 40.0776C68.2169 40.0776 69.028 39.6983 69.4466 39.4143C69.8652 39.1303 71.0949 38.6578 72.7995 38.6896C74.2384 38.6305 74.7476 37.8627 74.7476 37.8627C74.7476 37.8627 73.3006 38.4693 71.1211 38.3125C70.0612 38.2363 69.4372 38.585 68.8317 38.9234L68.8316 38.9234C68.1919 39.2809 67.5728 39.6269 66.4821 39.4483C64.3933 39.1064 62.0064 36.1173 61.9296 36.0205Z" fill="white"/>
</g>
<rect x="36.5" y="0.5" width="47" height="47" rx="23.5" stroke="white" stroke-opacity="0.6"/>
</g>
<g filter="url(#filter4_b_123_1108)">
<g clip-path="url(#clip7_123_1108)">
<rect width="48" height="48" rx="24" fill="white" fill-opacity="0.05"/>
<circle cx="24" cy="24" r="24" fill="#DA9909"/>
<g clip-path="url(#clip8_123_1108)">
<path d="M29 8H19C16.243 8 14 10.243 14 13V28C14 30.206 15.794 32 18 32H29C31.757 32 34 29.757 34 27V13C34 10.243 31.757 8 29 8ZM32 13V24H20V10H24V18.347C24 18.97 24.791 19.237 25.169 18.742L26.5 16.999L27.831 18.742C28.209 19.237 29 18.97 29 18.347V10C30.654 10 32 11.346 32 13ZM18 10.184V24C17.268 24 16.591 24.212 16 24.556V13C16 11.698 16.839 10.598 18 10.184ZM29 30H18C15.371 29.953 15.373 26.046 18 26H32V27C32 28.654 30.654 30 29 30Z" fill="white"/>
</g>
<path opacity="0.6" fill-rule="evenodd" clip-rule="evenodd" d="M20.3734 36C19.9199 36.2531 19.5136 36.4974 19.1416 36.7211L19.1414 36.7212L19.1413 36.7213C17.8269 37.5116 16.9394 38.0453 15.9011 37.8037C14.3192 37.4357 13.2344 37.8628 13.2344 37.8628C14.9371 37.9787 17.0362 38.7374 17.0362 38.7374C15.7461 40.4844 14.4218 40.1732 12.1356 39.4167C9.8473 38.6602 8.78263 39.6688 8.78263 39.6688C9.48703 39.3394 11.2943 39.3008 12.6005 40.155C13.9066 41.0091 15.73 40.7956 15.73 40.7956C13.8724 42.4267 10.7087 41.961 10.7087 41.961C15.6616 43.6307 18.2236 39.1645 18.2236 39.1645C17.6903 41.0091 18.0002 42.3677 18.0002 42.3677C18.7075 38.3376 20.4527 37.663 23.4775 36.4939L23.4775 36.4938L23.6736 36.418C23.9781 36.3 24.2437 36.1587 24.4753 36H45C40.2663 43.3837 32.6231 48.1769 24 48.1769C15.3769 48.1769 7.73376 43.3837 3 36H20.3734ZM22.1944 38.0319L22.1945 38.0339C22.1233 38.0715 21.424 38.4539 21.025 39.1735C20.8664 39.4596 20.8435 39.7592 20.8192 40.0759L20.8192 40.076C20.7791 40.5991 20.7355 41.1684 20.0711 41.7996C19.0044 42.8128 19.1453 43.4602 19.1453 43.4602C19.1997 42.9241 19.6907 42.5606 20.1254 42.3221C20.5601 42.0836 20.9526 41.3407 20.9526 41.3407L21.6107 42.5742C21.6389 44.1576 20.2522 44.5052 20.2522 44.5052C21.9327 44.5347 21.975 42.5901 21.975 42.5901C21.975 42.5901 22.6633 42.94 23.5589 43.1444C24.4545 43.3489 24.5531 43.8714 24.5531 43.8714C24.5531 43.8714 24.7926 43.1444 23.4321 42.7332C22.0716 42.3221 21.7214 41.5951 21.7214 41.5951C21.7214 41.5951 21.8743 41.5792 23.5005 41.5792C25.1266 41.5792 25.7848 42.1017 25.7848 42.1017C25.1972 41.1879 23.764 41.2094 22.8421 41.2232H22.8421H22.842L22.8417 41.2232C22.5354 41.2278 22.2856 41.2316 22.142 41.1998C21.5664 41.0726 21.2041 40.2207 21.7214 39.5074C22.2195 38.8204 22.1968 38.087 22.1945 38.0339L22.1981 38.032L22.2004 38.0308H22.1943L22.1944 38.0319ZM25.9296 36.0205L25.9297 36.0203L25.9277 36.0181L25.9296 36.0205ZM25.9296 36.0205C25.9193 36.0326 25.1884 36.8879 24.5249 37.1835C24.5249 37.1835 25.0341 37.2743 25.2454 38.5351L25.2649 38.6518C25.4716 39.8943 25.7286 41.4386 27.3264 42.02C27.3264 42.02 25.6359 40.775 25.9297 38.2352C25.9297 38.2352 27.8436 38.7873 28.4595 40.9477C29.0733 43.1081 31.0154 44.3848 31.0154 44.3848C31.0154 44.3848 29.2404 42.7764 29.2404 40.0004C29.2404 40.0004 32.4122 41.845 36.5761 40.741C36.5761 40.741 33.3057 40.8977 32.2169 40.0776C32.2169 40.0776 33.028 39.6983 33.4466 39.4143C33.8652 39.1303 35.0949 38.6578 36.7995 38.6896C38.2384 38.6305 38.7476 37.8627 38.7476 37.8627C38.7476 37.8627 37.3006 38.4693 35.1211 38.3125C34.0612 38.2363 33.4372 38.585 32.8317 38.9234L32.8316 38.9234C32.1919 39.2809 31.5728 39.6269 30.4821 39.4483C28.3933 39.1064 26.0064 36.1173 25.9296 36.0205Z" fill="white"/>
</g>
<rect x="0.5" y="0.5" width="47" height="47" rx="23.5" stroke="white" stroke-opacity="0.6"/>
</g>
<defs>
<filter id="filter0_b_123_1108" x="124" y="-20" width="88" height="88" filterUnits="userSpaceOnUse" color-interpolation-filters="sRGB">
<feFlood flood-opacity="0" result="BackgroundImageFix"/>
<feGaussianBlur in="BackgroundImageFix" stdDeviation="10"/>
<feComposite in2="SourceAlpha" operator="in" result="effect1_backgroundBlur_123_1108"/>
<feBlend mode="normal" in="SourceGraphic" in2="effect1_backgroundBlur_123_1108" result="shape"/>
</filter>
<filter id="filter1_b_123_1108" x="88" y="-20" width="88" height="88" filterUnits="userSpaceOnUse" color-interpolation-filters="sRGB">
<feFlood flood-opacity="0" result="BackgroundImageFix"/>
<feGaussianBlur in="BackgroundImageFix" stdDeviation="10"/>
<feComposite in2="SourceAlpha" operator="in" result="effect1_backgroundBlur_123_1108"/>
<feBlend mode="normal" in="SourceGraphic" in2="effect1_backgroundBlur_123_1108" result="shape"/>
</filter>
<filter id="filter2_b_123_1108" x="52" y="-20" width="88" height="88" filterUnits="userSpaceOnUse" color-interpolation-filters="sRGB">
<feFlood flood-opacity="0" result="BackgroundImageFix"/>
<feGaussianBlur in="BackgroundImageFix" stdDeviation="10"/>
<feComposite in2="SourceAlpha" operator="in" result="effect1_backgroundBlur_123_1108"/>
<feBlend mode="normal" in="SourceGraphic" in2="effect1_backgroundBlur_123_1108" result="shape"/>
</filter>
<filter id="filter3_b_123_1108" x="16" y="-20" width="88" height="88" filterUnits="userSpaceOnUse" color-interpolation-filters="sRGB">
<feFlood flood-opacity="0" result="BackgroundImageFix"/>
<feGaussianBlur in="BackgroundImageFix" stdDeviation="10"/>
<feComposite in2="SourceAlpha" operator="in" result="effect1_backgroundBlur_123_1108"/>
<feBlend mode="normal" in="SourceGraphic" in2="effect1_backgroundBlur_123_1108" result="shape"/>
</filter>
<filter id="filter4_b_123_1108" x="-20" y="-20" width="88" height="88" filterUnits="userSpaceOnUse" color-interpolation-filters="sRGB">
<feFlood flood-opacity="0" result="BackgroundImageFix"/>
<feGaussianBlur in="BackgroundImageFix" stdDeviation="10"/>
<feComposite in2="SourceAlpha" operator="in" result="effect1_backgroundBlur_123_1108"/>
<feBlend mode="normal" in="SourceGraphic" in2="effect1_backgroundBlur_123_1108" result="shape"/>
</filter>
<clipPath id="clip0_123_1108">
<rect x="144" width="48" height="48" rx="24" fill="white"/>
</clipPath>
<clipPath id="clip1_123_1108">
<rect width="24" height="24" fill="white" transform="translate(156 8)"/>
</clipPath>
<clipPath id="clip2_123_1108">
<rect x="108" width="48" height="48" rx="24" fill="white"/>
</clipPath>
<clipPath id="clip3_123_1108">
<rect x="72" width="48" height="48" rx="24" fill="white"/>
</clipPath>
<clipPath id="clip4_123_1108">
<rect width="24" height="24" fill="white" transform="translate(84 8)"/>
</clipPath>
<clipPath id="clip5_123_1108">
<rect x="36" width="48" height="48" rx="24" fill="white"/>
</clipPath>
<clipPath id="clip6_123_1108">
<rect width="24" height="24" fill="white" transform="translate(48 8)"/>
</clipPath>
<clipPath id="clip7_123_1108">
<rect width="48" height="48" rx="24" fill="white"/>
</clipPath>
<clipPath id="clip8_123_1108">
<rect width="24" height="24" fill="white" transform="translate(12 8)"/>
</clipPath>
</defs>
</svg>
