<svg width="161" height="160" viewBox="0 0 161 160" fill="none" xmlns="http://www.w3.org/2000/svg">
<g clip-path="url(#clip0_158_1019)">
<path d="M143.979 126.789C129.572 146.453 106.31 159.218 80.0645 159.218C53.8196 159.218 30.5574 146.453 16.15 126.789H143.979Z" fill="#F3C470"/>
<path fill-rule="evenodd" clip-rule="evenodd" d="M67.4326 87.4678V90.5674C66.1088 91.3228 64.1696 92.3353 61.9812 93.153H54.575V26.2401H61.4127V87.4678H67.4326ZM84.5114 27.4629C83.094 26.653 81.2717 26.2403 79.0443 26.2403H70.0572V89.1036C70.1844 89.059 70.3541 89.0049 70.5586 88.9397C71.8923 88.5142 74.7059 87.6165 76.8871 85.8405V31.6917H78.5614C79.3558 31.6917 80.01 31.8864 80.4929 32.268C80.9913 32.6497 81.3495 33.2259 81.5754 33.9891C81.7934 34.7445 81.9025 35.7569 81.9025 36.9952V82.5384C81.9025 83.7221 81.7934 84.6879 81.5754 85.4276C81.4352 85.895 81.2405 86.2765 80.9991 86.5959C80.7966 86.8139 80.5786 87.0242 80.3449 87.2266L80.2747 87.2734V87.2889C78.4858 88.8213 75.9276 89.903 71.8476 91.6284L71.8328 91.6346C67.9451 93.2801 64.8305 94.9395 62.1684 96.3577C57.0822 99.0673 53.6479 100.897 49.6297 100.069C43.5085 98.8071 39.3108 100.271 39.3108 100.271C45.8994 100.668 54.0221 103.27 54.0221 103.27C49.03 109.258 43.9057 108.191 35.0588 105.598C26.204 103.005 22.0842 106.463 22.0842 106.463C24.8099 105.333 31.8035 105.201 36.8578 108.129C41.912 111.057 48.9678 110.325 48.9678 110.325C41.7796 115.917 29.5371 114.32 29.5371 114.32C48.703 120.044 58.6169 104.734 58.6169 104.734C56.5532 111.057 57.7524 115.715 57.7524 115.715C60.4896 101.899 67.2429 99.5863 78.9477 95.5782C79.1983 95.4922 79.4511 95.4056 79.7063 95.3181C84.1766 93.784 86.4818 91.0972 87.6421 88.3715C87.6499 88.3519 87.6597 88.3345 87.6693 88.317L87.6694 88.3169V88.3167C87.6791 88.2993 87.6889 88.2818 87.6966 88.2625C87.7052 88.2395 87.7138 88.2157 87.7224 88.1914L87.7316 88.1651C87.7434 88.132 87.755 88.0989 87.7667 88.0677C87.8836 87.7563 87.9926 87.4525 88.0859 87.1488L88.2028 86.7516C88.3196 86.331 88.4053 85.9183 88.4754 85.5056C88.4754 85.4899 88.4754 85.4666 88.4831 85.4511C88.5688 84.9292 88.6311 84.423 88.6623 83.9402L88.6665 83.8653C88.6683 83.8319 88.67 83.7984 88.6718 83.7645L88.6763 83.682C88.6794 83.623 88.6825 83.5636 88.6856 83.5041V83.3951L88.6867 83.3741L88.6868 83.3738C88.7098 82.9294 88.7323 82.4919 88.7323 82.0166V37.5248C88.7323 34.9782 88.3819 32.8677 87.681 31.1934C86.9801 29.5111 85.9132 28.2729 84.4958 27.4629H84.5114ZM50.798 26.2403H43.9602V93.1531H50.798V26.2403ZM92.5173 26.2403H99.3551V93.1531H92.5173V26.2403ZM111.543 87.7017C110.429 87.7017 109.518 87.7173 108.817 87.7485L108.576 87.3668C108.989 85.9028 109.323 84.3373 109.58 82.6864L117.898 30.7338V26.2403H102.797V31.6917H108.007C109.253 31.6917 110.281 31.6761 111.115 31.6451L111.309 32.0266C110.928 33.4284 110.562 35.2274 110.211 37.4236L101.894 88.6596V93.1531H118.241V87.7017H111.551H111.543ZM73.9829 100.858L73.9825 100.851L73.9822 100.847H74.0055C74.0055 100.847 74.0025 100.848 73.9967 100.851C73.993 100.853 73.9885 100.855 73.9829 100.858ZM73.9829 100.858C73.9919 101.04 74.0797 103.554 72.152 105.909C70.1505 108.355 71.5525 111.275 73.7797 111.711C74.3354 111.82 75.3026 111.807 76.4883 111.791H76.4886C80.0561 111.744 85.6021 111.67 87.8757 114.803C87.8757 114.803 85.329 113.012 79.0365 113.012C72.7439 113.012 72.152 113.066 72.152 113.066C72.152 113.066 73.5072 115.558 78.7718 116.968C84.0363 118.377 83.1095 120.87 83.1095 120.87C83.1095 120.87 82.728 119.078 79.2623 118.377C75.7968 117.677 73.1333 116.477 73.1333 116.477C73.1333 116.477 72.9698 123.144 66.467 123.042C66.467 123.042 71.8328 121.851 71.7238 116.423L69.1771 112.194C69.1771 112.194 67.6585 114.741 65.9763 115.558C64.2942 116.376 62.394 117.622 62.1837 119.46C62.1837 119.46 61.6385 117.24 65.7661 113.767C68.3371 111.603 68.506 109.652 68.661 107.858C68.7549 106.773 68.8437 105.745 69.4575 104.764C71.0011 102.298 73.7073 100.986 73.9829 100.858ZM88.4366 93.955L88.4361 93.9553L88.4288 93.9471L88.4366 93.955ZM88.4361 93.9553C88.7334 94.2872 97.9696 104.535 106.053 105.707C110.273 106.319 112.669 105.133 115.144 103.907C117.487 102.747 119.902 101.551 124.004 101.813C132.437 102.35 138.037 100.271 138.037 100.271C138.037 100.271 136.067 102.903 130.498 103.106C123.902 102.997 119.144 104.616 117.524 105.59C115.904 106.563 112.766 107.864 112.766 107.864C116.979 110.675 129.634 110.138 129.634 110.138C113.521 113.923 101.248 107.599 101.248 107.599C101.248 117.116 108.116 122.63 108.116 122.63C108.116 122.63 100.601 118.253 98.2258 110.847C95.8427 103.44 88.4366 101.548 88.4366 101.548C87.2995 110.255 93.8412 114.523 93.8412 114.523C87.6582 112.529 86.6639 107.236 85.8639 102.976C85.8388 102.842 85.8137 102.708 85.7887 102.576C84.971 98.2537 83.0006 97.9423 83.0006 97.9423C85.5679 96.9292 88.3961 93.9968 88.4361 93.9553Z" fill="url(#paint0_linear_158_1019)"/>
<path d="M80.0646 159.996C54.6763 159.996 30.5417 147.753 15.5191 127.248C5.42608 113.479 0.0914307 97.1479 0.0914307 80.0226C0.0914307 35.9279 35.9699 0.049408 80.0646 0.049408C124.159 0.049408 160.038 35.9279 160.038 80.0226C160.038 97.1479 154.703 113.479 144.61 127.248C129.587 147.753 105.461 159.996 80.0646 159.996ZM80.0646 1.60698C36.8266 1.60698 1.64899 36.7846 1.64899 80.0226C1.64899 96.8209 6.88241 112.833 16.7807 126.329C31.5153 146.437 55.1669 158.438 80.0646 158.438C104.962 158.438 128.622 146.437 143.348 126.329C153.247 112.833 158.48 96.8209 158.48 80.0226C158.48 36.7846 123.303 1.60698 80.0646 1.60698Z" fill="#F3C470"/>
<path d="M46.0936 141.34C46.0936 141.426 46.1249 141.489 46.1796 141.528C46.2344 141.567 46.297 141.59 46.3752 141.59V141.841H44.2081V141.59C44.4116 141.59 44.5133 141.504 44.5133 141.34V135.049C44.5133 134.885 44.4116 134.799 44.2081 134.799V134.549H46.3674V134.799C46.297 134.799 46.2266 134.822 46.1718 134.862C46.117 134.901 46.0858 134.963 46.0858 135.049V137.678L48.9568 135.417C49.0898 135.308 49.1836 135.214 49.2619 135.143C49.3323 135.073 49.3714 135.018 49.3714 134.971C49.3714 134.909 49.3479 134.862 49.3088 134.83C49.2697 134.799 49.2149 134.791 49.1602 134.791V134.541H52.0704V134.791C51.9061 134.791 51.7418 134.862 51.5697 135.002L48.3857 137.537L51.2959 140.902C51.4132 141.043 51.554 141.176 51.7183 141.309C51.8827 141.442 52.0391 141.535 52.1955 141.582V141.833H49.6296V141.582C49.747 141.582 49.8096 141.551 49.8096 141.489C49.8096 141.442 49.747 141.34 49.614 141.183L47.2436 138.453L46.0779 139.353V141.332L46.0936 141.34Z" fill="#1F1F1A"/>
<path d="M53.5879 141.589C53.8304 141.589 53.9478 141.503 53.9478 141.339V135.049C53.9478 134.885 53.8304 134.799 53.5879 134.799V134.549H55.8878V134.799C55.6453 134.799 55.5279 134.885 55.5279 135.049V141.339C55.5279 141.503 55.6453 141.589 55.8878 141.589V141.839H53.5879V141.589Z" fill="#1F1F1A"/>
<path d="M62.0683 141.339C62.0683 141.503 62.17 141.589 62.3734 141.589V141.839H60.2377V141.589C60.3003 141.589 60.3628 141.565 60.4097 141.526C60.4567 141.487 60.4879 141.425 60.4879 141.339V135.824H58.2036C58.1175 135.824 58.0394 135.847 57.9612 135.894C57.883 135.941 57.8438 136.027 57.8438 136.16H57.5935V134.22H57.8438C57.8438 134.353 57.883 134.439 57.9612 134.486C58.0394 134.533 58.1175 134.556 58.2036 134.556H64.3526C64.4387 134.556 64.5169 134.533 64.5951 134.486C64.6734 134.439 64.7125 134.353 64.7125 134.22H64.9627V136.16H64.7125C64.7125 136.027 64.6734 135.941 64.5951 135.894C64.5169 135.847 64.4387 135.824 64.3526 135.824H62.0683V141.339Z" fill="#1F1F1A"/>
<path d="M70.9005 134.47C71.4089 134.47 71.9253 134.549 72.4495 134.697C72.9736 134.846 73.4587 135.081 73.8889 135.386C74.3192 135.691 74.6791 136.074 74.9528 136.544C75.2266 137.013 75.3675 137.561 75.3675 138.202C75.3675 138.844 75.2266 139.392 74.9528 139.86C74.6791 140.329 74.3192 140.713 73.8889 141.018C73.4587 141.323 72.9736 141.542 72.4495 141.683C71.9253 141.824 71.4089 141.894 70.9005 141.894C70.3919 141.894 69.8757 141.824 69.3515 141.683C68.8274 141.542 68.3423 141.323 67.9121 141.018C67.4818 140.713 67.1219 140.329 66.8482 139.86C66.5744 139.392 66.4335 138.844 66.4335 138.202C66.4335 137.561 66.5744 137.013 66.8482 136.544C67.1219 136.074 67.4818 135.691 67.9121 135.386C68.3423 135.081 68.8274 134.854 69.3515 134.697C69.8757 134.549 70.3919 134.47 70.9005 134.47ZM70.9005 135.746C70.5484 135.746 70.1965 135.801 69.8444 135.91C69.4923 136.02 69.1793 136.184 68.8978 136.387C68.6162 136.599 68.3893 136.849 68.2093 137.154C68.0295 137.459 67.9434 137.803 67.9434 138.195C67.9434 138.586 68.0295 138.93 68.2093 139.235C68.3814 139.54 68.6162 139.799 68.8978 140.001C69.1793 140.212 69.4923 140.368 69.8444 140.478C70.1965 140.587 70.5484 140.642 70.9005 140.642C71.2526 140.642 71.6045 140.587 71.9566 140.478C72.3087 140.368 72.6215 140.204 72.9032 140.001C73.1848 139.791 73.4117 139.54 73.5917 139.235C73.7637 138.93 73.8576 138.586 73.8576 138.195C73.8576 137.803 73.7715 137.459 73.5917 137.154C73.4117 136.849 73.1848 136.591 72.9032 136.387C72.6215 136.176 72.3087 136.02 71.9566 135.91C71.6045 135.801 71.2526 135.746 70.9005 135.746Z" fill="#1F1F1A"/>
<path d="M81.7823 134.556C82.2047 134.556 82.6193 134.588 83.0184 134.658C83.4172 134.729 83.7693 134.838 84.0745 134.987C84.3796 135.135 84.622 135.339 84.8098 135.581C84.9976 135.824 85.0836 136.129 85.0836 136.489C85.0836 136.927 84.9506 137.256 84.6846 137.49C84.4187 137.725 84.0979 137.905 83.7302 138.038V138.069C84.1605 138.202 84.5281 138.406 84.8333 138.688C85.1306 138.969 85.287 139.376 85.287 139.899C85.287 140.173 85.2245 140.431 85.1071 140.666C84.9897 140.9 84.8098 141.104 84.5751 141.284C84.3405 141.456 84.051 141.597 83.7067 141.691C83.3625 141.785 82.9792 141.839 82.5411 141.839H77.4562V141.589C77.7142 141.589 77.8472 141.503 77.8472 141.339V135.049C77.8472 134.885 77.7142 134.799 77.4562 134.799V134.549H81.7901L81.7823 134.556ZM82.0561 137.412C82.4707 137.412 82.8149 137.357 83.0888 137.256C83.3625 137.146 83.4955 136.927 83.4955 136.583C83.4955 136.239 83.3625 136.02 83.0888 135.91C82.8149 135.8 82.4707 135.754 82.0561 135.754H79.4119V137.412H82.0561ZM82.0561 140.572C82.635 140.572 83.0575 140.486 83.3078 140.298C83.5581 140.118 83.6911 139.883 83.6911 139.586C83.6911 139.29 83.5659 139.055 83.3078 138.875C83.0497 138.695 82.635 138.601 82.0561 138.601H79.4119V140.564H82.0561V140.572Z" fill="#1F1F1A"/>
<path d="M94.2443 142.105C94.2443 141.964 94.1974 141.886 94.1113 141.871C94.0252 141.855 93.908 141.839 93.775 141.839H87.1801V141.589C87.4539 141.589 87.5947 141.503 87.5947 141.339V135.049C87.5947 134.885 87.4539 134.799 87.1801 134.799V134.549H89.5661V134.799C89.308 134.799 89.175 134.885 89.175 135.049V140.564H93.775C93.9158 140.564 94.0252 140.533 94.1113 140.47C94.1974 140.407 94.2443 140.321 94.2443 140.204H94.4947V142.105H94.2443Z" fill="#1F1F1A"/>
<path d="M95.0502 141.589C95.1674 141.573 95.2613 141.511 95.3317 141.409C95.4021 141.307 95.4647 141.19 95.5351 141.065L98.1011 135.675C98.1637 135.558 98.2263 135.448 98.2732 135.347C98.3202 135.245 98.3515 135.159 98.3515 135.081C98.3515 134.987 98.3202 134.924 98.2576 134.885C98.195 134.846 98.1246 134.822 98.0464 134.799V134.549H100.385V134.799C100.323 134.815 100.252 134.846 100.19 134.877C100.127 134.909 100.096 134.979 100.096 135.081C100.096 135.151 100.112 135.229 100.143 135.3C100.174 135.37 100.221 135.472 100.292 135.589L103.17 141.229C103.217 141.331 103.28 141.401 103.358 141.448C103.436 141.495 103.53 141.542 103.632 141.589V141.839H101.191V141.589C101.191 141.589 101.277 141.573 101.332 141.55C101.387 141.526 101.418 141.479 101.418 141.425C101.418 141.331 101.379 141.213 101.309 141.065L100.784 140.04H97.4048L96.9042 141.026C96.8103 141.221 96.7634 141.362 96.7634 141.44C96.7634 141.542 96.8494 141.589 97.0294 141.589V141.839H95.0658V141.589H95.0502ZM100.276 139.016L99.1103 136.442L97.8116 139.016H100.276Z" fill="#1F1F1A"/>
<path d="M109.851 134.556C110.297 134.556 110.696 134.596 111.056 134.674C111.416 134.752 111.729 134.877 111.987 135.049C112.245 135.222 112.441 135.441 112.582 135.714C112.722 135.988 112.793 136.325 112.793 136.716C112.793 137.326 112.613 137.796 112.253 138.116C111.893 138.437 111.408 138.656 110.798 138.766L112.644 141.393C112.707 141.487 112.785 141.542 112.871 141.558C112.957 141.573 113.035 141.589 113.114 141.589V141.839H110.524V141.589C110.61 141.589 110.681 141.573 110.735 141.55C110.798 141.518 110.829 141.487 110.829 141.44C110.829 141.393 110.814 141.339 110.775 141.284C110.735 141.221 110.681 141.143 110.61 141.041L109.085 138.883H107.105V141.346C107.105 141.432 107.137 141.495 107.199 141.534C107.262 141.573 107.364 141.597 107.528 141.597V141.847H105.134V141.597C105.4 141.597 105.533 141.511 105.533 141.346V135.049C105.533 134.885 105.4 134.799 105.134 134.799V134.549H109.875L109.851 134.556ZM109.492 137.796C109.82 137.796 110.102 137.772 110.321 137.717C110.54 137.663 110.72 137.592 110.845 137.506C110.978 137.412 111.064 137.303 111.119 137.178C111.173 137.052 111.205 136.919 111.205 136.771C111.205 136.622 111.173 136.489 111.119 136.364C111.064 136.239 110.97 136.129 110.845 136.035C110.712 135.941 110.54 135.871 110.321 135.824C110.102 135.777 109.82 135.746 109.492 135.746H107.098V137.796H109.492Z" fill="#1F1F1A"/>
<path d="M115.156 141.589C115.398 141.589 115.515 141.503 115.515 141.339V135.049C115.515 134.885 115.398 134.799 115.156 134.799V134.549H117.456V134.799C117.213 134.799 117.096 134.885 117.096 135.049V141.339C117.096 141.503 117.213 141.589 117.456 141.589V141.839H115.156V141.589Z" fill="#1F1F1A"/>
</g>
<defs>
<linearGradient id="paint0_linear_158_1019" x1="80.0606" y1="26.2401" x2="80.0606" y2="123.044" gradientUnits="userSpaceOnUse">
<stop stop-color="#F7C874"/>
<stop offset="0.303844" stop-color="#EEBF6A"/>
<stop offset="1" stop-color="#7A633A"/>
</linearGradient>
<clipPath id="clip0_158_1019">
<rect width="160.13" height="160" fill="white"/>
</clipPath>
</defs>
</svg>
