<svg width="428" height="339" viewBox="0 0 428 339" fill="none" xmlns="http://www.w3.org/2000/svg">
<g clip-path="url(#clip0_106_1099)">
<rect width="428" height="339" fill="#CB8D05"/>
<path opacity="0.05" fill-rule="evenodd" clip-rule="evenodd" d="M161.384 79.9983V92.8061C155.914 95.9275 147.901 100.111 138.858 103.49H108.255V-173H136.509V79.9983H161.384ZM231.955 -167.947C226.098 -171.294 218.568 -172.999 209.364 -172.999H172.229V86.7573C172.755 86.573 173.456 86.3494 174.3 86.08C179.812 84.3218 191.438 80.6125 200.451 73.2738V-150.473H207.369C210.652 -150.473 213.355 -149.669 215.35 -148.092C217.409 -146.515 218.89 -144.134 219.823 -140.981C220.724 -137.859 221.175 -133.676 221.175 -128.559V59.6292C221.175 64.5206 220.724 68.5112 219.823 71.5679C219.244 73.499 218.439 75.0756 217.442 76.3952C216.605 77.2961 215.704 78.1652 214.739 79.0015L214.449 79.1949V79.259C207.057 85.5907 196.486 90.0608 179.627 97.1899L179.566 97.2158C163.501 104.015 150.632 110.872 139.632 116.732C118.615 127.928 104.424 135.488 87.8207 132.066C62.5273 126.853 45.1821 132.903 45.1821 132.903C72.4066 134.544 105.97 145.292 105.97 145.292C85.3426 170.039 64.1686 165.63 27.6122 154.914C-8.97647 144.198 -26 158.486 -26 158.486C-14.737 153.82 14.1611 153.273 35.0458 165.372C55.9305 177.472 85.0856 174.447 85.0856 174.447C55.3831 197.552 4.79635 190.956 4.79635 190.956C83.9913 214.608 124.956 151.342 124.956 151.342C116.429 177.472 121.384 196.716 121.384 196.716C132.695 139.628 160.6 130.073 208.965 113.511C210.001 113.156 211.045 112.798 212.1 112.436C230.571 106.097 240.097 94.9953 244.891 83.7323C244.923 83.6515 244.964 83.5793 245.004 83.5071L245.004 83.506C245.044 83.4338 245.084 83.3616 245.116 83.2819C245.152 83.187 245.187 83.0884 245.223 82.9882L245.261 82.8794C245.31 82.7425 245.358 82.6057 245.406 82.4769C245.889 81.1902 246.339 79.9347 246.725 78.6798L247.208 77.0385C247.691 75.3008 248.045 73.5955 248.335 71.8901C248.335 71.8255 248.335 71.729 248.366 71.6649C248.72 69.5085 248.978 67.4168 249.107 65.4216L249.124 65.1123C249.131 64.9743 249.139 64.8359 249.146 64.6958L249.164 64.3547C249.177 64.1111 249.19 63.8654 249.203 63.6197V63.1693L249.207 63.0825L249.208 63.0814C249.303 61.2451 249.396 59.4374 249.396 57.4734V-126.371C249.396 -136.894 247.948 -145.614 245.052 -152.533C242.156 -159.484 237.747 -164.6 231.89 -167.947H231.955ZM92.648 -172.999H64.3938V103.49H92.648V-172.999ZM265.036 -172.999H293.29V103.49H265.036V-172.999ZM343.652 80.9644C339.05 80.9644 335.285 81.0291 332.389 81.1579L331.391 79.5807C333.097 73.5314 334.48 67.0628 335.542 60.2408L369.911 -154.432V-172.999H307.513V-150.473H329.042C334.19 -150.473 338.438 -150.538 341.882 -150.666L342.686 -149.09C341.109 -143.297 339.597 -135.864 338.149 -126.789L303.78 84.9226V103.49H371.327V80.9644H343.684H343.652ZM188.45 135.326L188.448 135.298L188.447 135.282H188.544C188.544 135.282 188.531 135.288 188.507 135.299C188.492 135.306 188.473 135.315 188.45 135.326ZM188.45 135.326C188.487 136.079 188.85 146.467 180.885 156.199C172.614 166.304 178.407 178.371 187.61 180.173C189.907 180.623 193.903 180.57 198.803 180.505H198.804C213.545 180.309 236.462 180.004 245.857 192.949C245.857 192.949 235.333 185.548 209.332 185.548C183.331 185.548 180.885 185.773 180.885 185.773C180.885 185.773 186.484 196.07 208.238 201.895C229.991 207.72 226.162 218.017 226.162 218.017C226.162 218.017 224.585 210.616 210.265 207.719C195.945 204.823 184.94 199.868 184.94 199.868C184.94 199.868 184.264 227.413 157.394 226.995C157.394 226.995 179.566 222.072 179.115 199.643L168.592 182.169C168.592 182.169 162.317 192.692 155.366 196.07C148.415 199.449 140.564 204.598 139.695 212.193C139.695 212.193 137.442 203.021 154.498 188.669C165.121 179.729 165.819 171.663 166.46 164.253C166.848 159.768 167.214 155.522 169.751 151.469C176.129 141.276 187.311 135.858 188.45 135.326ZM248.174 106.804L248.172 106.805L248.142 106.771L248.174 106.804ZM248.172 106.805C249.4 108.177 287.565 150.519 320.965 155.363C338.405 157.892 348.304 152.991 358.532 147.927C368.215 143.133 378.192 138.193 395.14 139.273C429.99 141.493 453.127 132.901 453.127 132.901C453.127 132.901 444.985 143.778 421.977 144.615C394.721 144.164 375.06 150.858 368.366 154.88C361.672 158.903 348.704 164.277 348.704 164.277C366.113 175.893 418.406 173.673 418.406 173.673C351.825 189.313 301.11 163.183 301.11 163.183C301.11 202.506 329.492 225.29 329.492 225.29C329.492 225.29 298.439 207.205 288.624 176.601C278.777 145.999 248.174 138.179 248.174 138.179C243.475 174.156 270.507 191.791 270.507 191.791C244.958 183.555 240.849 161.68 237.544 144.08C237.44 143.524 237.336 142.973 237.233 142.427C233.854 124.566 225.712 123.28 225.712 123.28C236.32 119.094 248.007 106.977 248.172 106.805Z" fill="white"/>
</g>
<defs>
<clipPath id="clip0_106_1099">
<rect width="428" height="339" fill="white"/>
</clipPath>
</defs>
</svg>
