<svg width="24" height="24" viewBox="0 0 24 24" fill="none" xmlns="http://www.w3.org/2000/svg">
<g clip-path="url(#clip0_160_2920)">
<path d="M1.83005 1.81994L2.88005 0.909942C4.09005 -0.300059 6.05006 -0.300059 7.26006 0.909942C7.29006 0.939942 9.14006 3.34994 9.14006 3.34994C10.2801 4.54994 10.2801 6.43994 9.14006 7.62994L7.98005 9.08994C9.44006 12.3999 11.7101 14.6799 14.9101 16.0399L16.3701 14.8699C17.5601 13.7199 19.4601 13.7199 20.6501 14.8699C20.6501 14.8699 23.0601 16.7199 23.0901 16.7499C24.3001 17.9599 24.3001 19.9199 23.1401 21.0799L22.1401 22.2299C20.9901 23.3799 19.4401 24.0099 17.7601 24.0099C10.1201 24.0099 5.4359e-05 13.8799 5.4359e-05 6.24994C5.4359e-05 4.57994 0.630054 3.01994 1.83005 1.82994V1.81994ZM17.7601 21.9999C18.9001 21.9999 19.9501 21.5799 20.6701 20.8499L21.6701 19.6999C22.0801 19.2899 22.1001 18.6199 21.7101 18.1899C21.7101 18.1899 19.3201 16.3499 19.2901 16.3199C18.8801 15.9099 18.1601 15.9099 17.7401 16.3199C17.7101 16.3499 15.7001 17.9599 15.7001 17.9599C15.4201 18.1799 15.0501 18.2399 14.7201 18.1099C10.5801 16.5299 7.61005 13.5699 5.90005 9.29994C5.77005 8.96994 5.82005 8.58994 6.05005 8.29994C6.05005 8.29994 7.66006 6.27994 7.68006 6.25994C8.11006 5.82994 8.11006 5.13994 7.68006 4.70994C7.65006 4.67994 5.81005 2.28994 5.81005 2.28994C5.38005 1.89994 4.71005 1.90994 4.25005 2.36994L3.20006 3.27994C2.43006 4.04994 2.00005 5.09994 2.00005 6.23994C2.00005 13.1999 11.7701 21.9999 17.7601 21.9999Z" fill="#292E33"/>
</g>
<defs>
<clipPath id="clip0_160_2920">
<rect width="24" height="24" fill="white" transform="matrix(-1 0 0 1 24 0)"/>
</clipPath>
</defs>
</svg>
