<svg width="24" height="24" viewBox="0 0 24 24" fill="none" xmlns="http://www.w3.org/2000/svg">
<path d="M17 0H7C4.243 0 2 2.243 2 5V20C2 22.206 3.794 24 6 24H17C19.757 24 22 21.757 22 19V5C22 2.243 19.757 0 17 0ZM20 11H17C16.448 11 16 10.552 16 10C16 9.448 16.448 9 17 9H20V11ZM20 5V7H17C15.346 7 14 8.346 14 10C14 11.654 15.346 13 17 13H20V16H8V2H17C18.654 2 20 3.346 20 5ZM6 2.172V16C5.272 16 4.589 16.196 4 16.537V5C4 3.696 4.836 2.585 6 2.172ZM17 22H6C4.897 22 4 21.103 4 20C4 18.897 4.897 18 6 18H20V19C20 20.654 18.654 22 17 22Z" fill="#292E33"/>
</svg>
