<svg width="24" height="25" viewBox="0 0 24 25" fill="none" xmlns="http://www.w3.org/2000/svg">
<g clip-path="url(#clip0_106_1048)">
<path d="M17 0.5H7C4.243 0.5 2 2.743 2 5.5V20.5C2 22.706 3.794 24.5 6 24.5H17C19.757 24.5 22 22.257 22 19.5V5.5C22 2.743 19.757 0.5 17 0.5ZM20 5.5V16.5H8V2.5H12V10.847C12 11.47 12.791 11.737 13.169 11.242L14.5 9.499L15.831 11.242C16.209 11.737 17 11.47 17 10.847V2.5C18.654 2.5 20 3.846 20 5.5ZM6 2.684V16.5C5.268 16.5 4.591 16.712 4 17.056V5.5C4 4.198 4.839 3.098 6 2.684ZM17 22.5H6C3.371 22.453 3.373 18.546 6 18.5H20V19.5C20 21.154 18.654 22.5 17 22.5Z" fill="#B4B9BD"/>
</g>
<defs>
<clipPath id="clip0_106_1048">
<rect width="24" height="24" fill="white" transform="translate(0 0.5)"/>
</clipPath>
</defs>
</svg>
