<svg width="24" height="24" viewBox="0 0 24 24" fill="none" xmlns="http://www.w3.org/2000/svg">
<g clip-path="url(#clip0_160_2900)">
<path d="M19 0H5C2.24 0 0 2.24 0 5V19C0 21.76 2.24 24 5 24H19C21.76 24 24 21.76 24 19V5C24 2.24 21.76 0 19 0ZM22 14.59L14.59 22H10.42L22.01 10.41V14.58L22 14.59ZM20.29 2.3L2.29 20.29C2.1 19.9 2 19.46 2 19V16.41L16.41 2H19C19.46 2 19.9 2.11 20.29 2.29V2.3ZM2 9.41L9.41 2H13.58L2 13.59V9.42V9.41ZM5 2H6.59L2 6.59V5C2 3.35 3.35 2 5 2ZM3.71 21.71L21.71 3.71C21.9 4.1 22 4.54 22 5V7.59L7.59 22H5C4.54 22 4.1 21.89 3.71 21.71ZM19 22H17.41L22 17.41V19C22 20.65 20.65 22 19 22Z" fill="#292E33"/>
</g>
<defs>
<clipPath id="clip0_160_2900">
<rect width="24" height="24" fill="white"/>
</clipPath>
</defs>
</svg>
