<svg width="24" height="24" viewBox="0 0 24 24" fill="none" xmlns="http://www.w3.org/2000/svg">
<g clip-path="url(#clip0_160_2890)">
<path d="M8 16C8 16.828 7.328 17.5 6.5 17.5C5.672 17.5 5 16.828 5 16C5 15.172 5.672 14.5 6.5 14.5C7.328 14.5 8 15.172 8 16ZM6.5 4.5C5.672 4.5 5 5.172 5 6C5 6.828 5.672 7.5 6.5 7.5C7.328 7.5 8 6.828 8 6C8 5.172 7.328 4.5 6.5 4.5ZM6.5 9.5C5.672 9.5 5 10.172 5 11C5 11.828 5.672 12.5 6.5 12.5C7.328 12.5 8 11.828 8 11C8 10.172 7.328 9.5 6.5 9.5ZM19 0H5C2.243 0 0 2.243 0 5V18C0 20.757 2.243 23 5 23H8C8.552 23 9 22.553 9 22C9 21.447 8.552 21 8 21H5C3.346 21 2 19.654 2 18V5C2 3.346 3.346 2 5 2H19C20.654 2 22 3.346 22 5V14C22 14.553 22.448 15 23 15C23.552 15 24 14.553 24 14V5C24 2.243 21.757 0 19 0ZM11 7H18C18.552 7 19 6.552 19 6C19 5.448 18.552 5 18 5H11C10.448 5 10 5.448 10 6C10 6.552 10.448 7 11 7ZM11 12H18C18.552 12 19 11.552 19 11C19 10.448 18.552 10 18 10H11C10.448 10 10 10.448 10 11C10 11.552 10.448 12 11 12ZM23.705 18.549C24.096 19.127 24.096 19.873 23.705 20.451C22.809 21.776 20.746 24 17 24C13.254 24 11.191 21.776 10.294 20.451C9.903 19.872 9.903 19.126 10.294 18.549C11.19 17.224 13.252 15 16.999 15C20.746 15 22.809 17.224 23.705 18.549ZM21.93 19.5C21.2 18.494 19.667 17 17 17C14.333 17 12.799 18.495 12.07 19.5C12.799 20.506 14.333 22 17 22C19.667 22 21.2 20.506 21.93 19.5ZM17 18C16.172 18 15.5 18.672 15.5 19.5C15.5 20.328 16.172 21 17 21C17.828 21 18.5 20.328 18.5 19.5C18.5 18.672 17.828 18 17 18Z" fill="#292E33"/>
</g>
<defs>
<clipPath id="clip0_160_2890">
<rect width="24" height="24" fill="white"/>
</clipPath>
</defs>
</svg>
