<svg width="22" height="22" viewBox="0 0 22 22" fill="none" xmlns="http://www.w3.org/2000/svg">
<g clip-path="url(#clip0_160_1135)">
<path d="M22.0001 0.916667C22.0001 1.42358 21.5894 1.83333 21.0834 1.83333H9.16678C8.66078 1.83333 8.25011 1.42358 8.25011 0.916667C8.25011 0.40975 8.66078 0 9.16678 0H21.0834C21.5894 0 22.0001 0.40975 22.0001 0.916667ZM18.3334 4.58333H9.16678C8.66078 4.58333 8.25011 4.99308 8.25011 5.5C8.25011 6.00692 8.66078 6.41667 9.16678 6.41667H18.3334C18.8394 6.41667 19.2501 6.00692 19.2501 5.5C19.2501 4.99308 18.8394 4.58333 18.3334 4.58333ZM15.5834 9.16667H9.16678C8.66078 9.16667 8.25011 9.57642 8.25011 10.0833C8.25011 10.5903 8.66078 11 9.16678 11H15.5834C16.0894 11 16.5001 10.5903 16.5001 10.0833C16.5001 9.57642 16.0894 9.16667 15.5834 9.16667ZM12.8334 13.75H9.16678C8.66078 13.75 8.25011 14.1597 8.25011 14.6667C8.25011 15.1736 8.66078 15.5833 9.16678 15.5833H12.8334C13.3394 15.5833 13.7501 15.1736 13.7501 14.6667C13.7501 14.1597 13.3394 13.75 12.8334 13.75ZM7.06486 17.6852L5.50011 19.25V0.916667C5.50011 0.40975 5.08945 0 4.58345 0C4.07745 0 3.66678 0.40975 3.66678 0.916667V19.25L2.10111 17.6843C1.7427 17.3259 1.16336 17.3259 0.804945 17.6843C0.446529 18.0427 0.446529 18.6221 0.804945 18.9805L3.28636 21.4619C3.64386 21.8194 4.1132 21.9982 4.58345 21.9982C5.0537 21.9982 5.52211 21.8194 5.87961 21.4619L8.36103 18.9805C8.71945 18.6221 8.71945 18.0427 8.36103 17.6843C8.00261 17.3259 7.42328 17.3268 7.06486 17.6852Z" fill="#292E33"/>
</g>
<defs>
<clipPath id="clip0_160_1135">
<rect width="22" height="22" fill="white"/>
</clipPath>
</defs>
</svg>
